<svg width="30" height="30" viewBox="0 0 30 30" fill="none" xmlns="http://www.w3.org/2000/svg">
<path fill-rule="evenodd" clip-rule="evenodd" d="M15 0C6.71573 0 0 6.71573 0 15C0 23.2843 6.71573 30 15 30C23.2843 30 30 23.2843 30 15C30 11.0218 28.4196 7.20644 25.6066 4.3934C22.7936 1.58035 18.9782 0 15 0ZM15 27C8.37258 27 3 21.6274 3 15C3 8.37258 8.37258 3 15 3C21.6274 3 27 8.37258 27 15C27 18.1826 25.7357 21.2348 23.4853 23.4853C21.2348 25.7357 18.1826 27 15 27ZM16.32 6.75V14.46L21.765 19.905C22.0527 20.2017 22.0527 20.6733 21.765 20.97L20.97 21.765C20.6733 22.0527 20.2017 22.0527 19.905 21.765L13.905 15.765C13.7676 15.6239 13.6874 15.4368 13.68 15.24V6.75C13.68 6.33579 14.0158 6 14.43 6H15.57C15.9842 6 16.32 6.33579 16.32 6.75Z" fill="#0C939A"/>
</svg>
