<svg width="16" height="16" viewBox="0 0 16 16" fill="none" xmlns="http://www.w3.org/2000/svg">
<path fill-rule="evenodd" clip-rule="evenodd" d="M8 0.5C3.85786 0.5 0.5 3.85786 0.5 8C0.5 12.1421 3.85786 15.5 8 15.5C12.1421 15.5 15.5 12.1421 15.5 8C15.5 6.01088 14.7098 4.10322 13.3033 2.6967C11.8968 1.29018 9.98912 0.5 8 0.5ZM8 14C4.68629 14 2 11.3137 2 8C2 4.68629 4.68629 2 8 2C11.3137 2 14 4.68629 14 8C14 9.5913 13.3679 11.1174 12.2426 12.2426C11.1174 13.3679 9.5913 14 8 14ZM8.66 3.875V7.73L11.3825 10.4525C11.5263 10.6009 11.5263 10.8366 11.3825 10.985L10.985 11.3825C10.8366 11.5263 10.6009 11.5263 10.4525 11.3825L7.4525 8.3825C7.38378 8.31196 7.34369 8.21841 7.34 8.12V3.875C7.34 3.66789 7.50789 3.5 7.715 3.5H8.285C8.49211 3.5 8.66 3.66789 8.66 3.875Z" fill="#09989A"/>
</svg>
