<svg width="18" height="18" viewBox="0 0 18 18" fill="none" xmlns="http://www.w3.org/2000/svg">
<path d="M17.2875 15.29C17.4216 15.423 17.497 15.604 17.497 15.7929C17.497 15.9817 17.4216 16.1628 17.2875 16.2958L16.2958 17.2875C16.1628 17.4216 15.9817 17.497 15.7929 17.497C15.604 17.497 15.423 17.4216 15.29 17.2875L8.99995 10.9975L2.70995 17.2875C2.57695 17.4216 2.39591 17.497 2.20704 17.497C2.01817 17.497 1.83712 17.4216 1.70412 17.2875L0.712454 16.2958C0.578357 16.1628 0.50293 15.9817 0.50293 15.7929C0.50293 15.604 0.578357 15.423 0.712454 15.29L7.00245 8.99995L0.712454 2.70995C0.578357 2.57695 0.50293 2.39591 0.50293 2.20704C0.50293 2.01817 0.578357 1.83712 0.712454 1.70412L1.70412 0.712454C1.83712 0.578357 2.01817 0.50293 2.20704 0.50293C2.39591 0.50293 2.57695 0.578357 2.70995 0.712454L8.99995 7.00245L15.29 0.712454C15.423 0.578357 15.604 0.50293 15.7929 0.50293C15.9817 0.50293 16.1628 0.578357 16.2958 0.712454L17.2875 1.70412C17.4216 1.83712 17.497 2.01817 17.497 2.20704C17.497 2.39591 17.4216 2.57695 17.2875 2.70995L10.9975 8.99995L17.2875 15.29Z" fill="#0C939A"/>
</svg>
