<svg width="24" height="31" viewBox="0 0 24 31" fill="none" xmlns="http://www.w3.org/2000/svg">
<path fill-rule="evenodd" clip-rule="evenodd" d="M24 12C24 5.37258 18.6274 0 12 0C5.37258 0 0 5.37258 0 12C0 17.6172 2.74576 19.8254 5.29441 21.875C6.97898 23.2297 8.57743 24.5152 9.24 26.67L10.005 28.98C10.2195 29.6181 10.8328 30.0351 11.505 30H12.345C13.0172 30.0351 13.6305 29.6181 13.845 28.98L14.61 26.67C15.3268 24.5316 16.9418 23.2493 18.6339 21.9059C21.2265 19.8475 24 17.6455 24 12ZM12 3C7.02944 3 3 7.02944 3 12C3 16.2 4.77 17.61 7.23 19.5C9.29822 20.8976 10.9471 22.8317 12 25.095C13.058 22.835 14.7058 20.9021 16.77 19.5C19.23 17.61 21 16.2 21 12C21 7.02944 16.9706 3 12 3ZM15 12C15 13.6569 13.6569 15 12 15C10.3431 15 9 13.6569 9 12C9 10.3431 10.3431 9 12 9C13.6569 9 15 10.3431 15 12Z" fill="#0C939A"/>
</svg>
