<svg width="12" height="16" viewBox="0 0 12 16" fill="none" xmlns="http://www.w3.org/2000/svg">
<path fill-rule="evenodd" clip-rule="evenodd" d="M12 6.5C12 3.18629 9.31371 0.5 6 0.5C2.68629 0.5 0 3.18629 0 6.5C0 9.30861 1.37288 10.4127 2.64721 11.4375C3.48949 12.1148 4.28872 12.7576 4.62 13.835L5.0025 14.99C5.10975 15.309 5.41639 15.5175 5.7525 15.5H6.1725C6.50861 15.5175 6.81525 15.309 6.9225 14.99L7.305 13.835C7.66338 12.7658 8.4709 12.1247 9.31693 11.453C10.6133 10.4238 12 9.32276 12 6.5ZM6 2C3.51472 2 1.5 4.01472 1.5 6.5C1.5 8.6 2.385 9.305 3.615 10.25C4.64911 10.9488 5.47356 11.9159 6 13.0475C6.52898 11.9175 7.3529 10.9511 8.385 10.25C9.615 9.305 10.5 8.6 10.5 6.5C10.5 4.01472 8.48528 2 6 2ZM7.5 6.5C7.5 7.32843 6.82843 8 6 8C5.17157 8 4.5 7.32843 4.5 6.5C4.5 5.67157 5.17157 5 6 5C6.82843 5 7.5 5.67157 7.5 6.5Z" fill="#0C939A"/>
</svg>
