<svg width="54" height="54" viewBox="0 0 54 54" fill="none" xmlns="http://www.w3.org/2000/svg">
<path fill-rule="evenodd" clip-rule="evenodd" d="M54 27C54 41.9117 41.9117 54 27 54C12.0883 54 0 41.9117 0 27C0 12.0883 12.0883 0 27 0C41.9117 0 54 12.0883 54 27ZM27.5201 19.6994V10.3664H31.1501C32.7668 10.3664 34.0551 10.4916 35.0148 10.7419C35.9848 10.9923 36.8037 11.4147 37.4712 12.0093C38.1493 12.6247 38.6864 13.3914 39.0829 14.3093C39.4896 15.2377 39.6931 16.1765 39.6931 17.1257C39.6931 18.8572 39.0306 20.3227 37.7059 21.5223C38.989 21.9605 40.0007 22.7271 40.7413 23.8223C41.4924 24.9071 41.8679 26.1694 41.8679 27.6089C41.8679 29.4967 41.2003 31.0928 39.8651 32.3965C39.0619 33.1998 38.1597 33.7579 37.1584 34.0707C36.0631 34.3733 34.6913 34.5245 33.0434 34.5245H27.5201V23.3444C26.5584 23.0042 25.5827 22.8339 24.5928 22.8339C22.1101 22.8339 20.0188 23.7259 18.3185 25.5096C16.6078 27.2827 15.7525 29.4524 15.7525 32.0185C15.7525 34.5532 16.6078 36.6915 18.3185 38.4335C20.0292 40.1754 22.1257 41.0464 24.6084 41.0464C25.8915 41.0464 26.9815 40.8379 27.8785 40.4205C28.3791 40.2121 28.8956 39.9303 29.4275 39.5756C29.9698 39.221 30.5383 38.7934 31.1329 38.2927V42.6893C29.0468 43.8681 26.8563 44.4574 24.5615 44.4574C21.1088 44.4574 18.162 43.2527 15.7212 40.8431C13.2908 38.4127 12.0756 35.4815 12.0756 32.0498C12.0756 28.9725 13.0926 26.2293 15.1266 23.8198C17.6301 20.8677 20.8689 19.3918 24.8431 19.3918C25.7482 19.3918 26.6405 19.4944 27.5201 19.6994ZM31.1657 20.7401H32.3078C33.664 20.7401 34.6549 20.4427 35.2807 19.8481C35.9169 19.2432 36.2352 18.3565 36.2352 17.1883C36.2352 16.0513 35.9117 15.1907 35.2651 14.6066C34.6184 14.012 33.6796 13.7147 32.4488 13.7147H31.1657V20.7401ZM31.1657 31.098H33.4189C35.0668 31.098 36.2768 30.7746 37.0488 30.1279C37.8625 29.429 38.2692 28.5423 38.2692 27.4681C38.2692 26.4249 37.8781 25.5487 37.0957 24.8394C36.3343 24.1405 34.9731 23.791 33.0119 23.791H31.1657V31.098Z" fill="url(#paint0_radial_9_330)"/>
<defs>
<radialGradient id="paint0_radial_9_330" cx="0" cy="0" r="1" gradientUnits="userSpaceOnUse" gradientTransform="translate(27 27) rotate(-45) scale(27.1691)">
<stop stop-color="#37539B"/>
<stop offset="1" stop-color="#00A399" stop-opacity="0"/>
</radialGradient>
</defs>
</svg>
