<svg width="24" height="18" viewBox="0 0 24 18" fill="none" xmlns="http://www.w3.org/2000/svg">
<path fill-rule="evenodd" clip-rule="evenodd" d="M22.625 2.75H1.375C1.02982 2.75 0.75 2.47018 0.75 2.125V0.875C0.75 0.529822 1.02982 0.25 1.375 0.25H22.625C22.9702 0.25 23.25 0.529822 23.25 0.875V2.125C23.25 2.47018 22.9702 2.75 22.625 2.75ZM23.25 9.625V8.375C23.25 8.02982 22.9702 7.75 22.625 7.75H1.375C1.02982 7.75 0.75 8.02982 0.75 8.375V9.625C0.75 9.97018 1.02982 10.25 1.375 10.25H22.625C22.9702 10.25 23.25 9.97018 23.25 9.625ZM23.25 15.875V17.125C23.25 17.4702 22.9702 17.75 22.625 17.75H1.375C1.02982 17.75 0.75 17.4702 0.75 17.125V15.875C0.75 15.5298 1.02982 15.25 1.375 15.25H22.625C22.9702 15.25 23.25 15.5298 23.25 15.875Z" fill="#09989A"/>
</svg>
