<svg width="66" height="66" viewBox="0 0 66 66" fill="none" xmlns="http://www.w3.org/2000/svg">
<g filter="url(#filter0_d_9_314)">
<rect x="10" y="8" width="46" height="46" rx="23" fill="#0C939A"/>
<path d="M33.5 41H32.5C32.2238 41 32 40.7761 32 40.5V24.33L27.56 28.78C27.4661 28.8747 27.3383 28.9279 27.205 28.9279C27.0717 28.9279 26.9439 28.8747 26.85 28.78L26.15 28.07C26.0553 27.9761 26.0021 27.8483 26.0021 27.715C26.0021 27.5817 26.0553 27.4539 26.15 27.36L32.28 21.22C32.4205 21.0793 32.6111 21.0002 32.81 21H33.19C33.3884 21.0023 33.5783 21.0811 33.72 21.22L39.85 27.36C39.9446 27.4539 39.9979 27.5817 39.9979 27.715C39.9979 27.8483 39.9446 27.9761 39.85 28.07L39.14 28.78C39.0478 28.8741 38.9217 28.9271 38.79 28.9271C38.6583 28.9271 38.5321 28.8741 38.44 28.78L34 24.33V40.5C34 40.7761 33.7761 41 33.5 41Z" fill="white"/>
</g>
<defs>
<filter id="filter0_d_9_314" x="0" y="0" width="66" height="66" filterUnits="userSpaceOnUse" color-interpolation-filters="sRGB">
<feFlood flood-opacity="0" result="BackgroundImageFix"/>
<feColorMatrix in="SourceAlpha" type="matrix" values="0 0 0 0 0 0 0 0 0 0 0 0 0 0 0 0 0 0 127 0" result="hardAlpha"/>
<feOffset dy="2"/>
<feGaussianBlur stdDeviation="5"/>
<feColorMatrix type="matrix" values="0 0 0 0 0 0 0 0 0 0 0 0 0 0 0 0 0 0 0.202828 0"/>
<feBlend mode="normal" in2="BackgroundImageFix" result="effect1_dropShadow_9_314"/>
<feBlend mode="normal" in="SourceGraphic" in2="effect1_dropShadow_9_314" result="shape"/>
</filter>
</defs>
</svg>
